<svg xmlns="http://www.w3.org/2000/svg" xmlns:xlink="http://www.w3.org/1999/xlink" width="300" height="300" viewBox="0 0 300 300">
  <defs>
    <clipPath id="clip-custom_1">
      <rect width="300" height="300"/>
    </clipPath>
  </defs>
  <g id="custom_1" data-name="custom – 1" clip-path="url(#clip-custom_1)">
    <rect width="300" height="300" fill="#fff"/>
    <g id="unicorn" transform="translate(19.097 0.063)">
      <path id="Path_11" data-name="Path 11" d="M149.449,138.923a139.073,139.073,0,0,0-12.762-51.781,5.5,5.5,0,0,1,3.4-7.744c11.733-3.353,19.431-8.556,22.888-15.46a20.787,20.787,0,0,0,1.732-12.7C135.033,48.561,130.682,68.4,130.5,69.275a5.493,5.493,0,0,1-5.857,4.4c-.505-.044-1.005-.088-1.51-.088-24.045-1.319-38.2,3.621-43.615,15.047a15.632,15.632,0,0,0-.89,10.442,32.33,32.33,0,0,0,1,3.78,5.5,5.5,0,0,1-3.98,9.317,7.1,7.1,0,0,1-1.1-.171v.048a6.8,6.8,0,0,1-.879-.247,52.18,52.18,0,0,1-19.549-9.628c-2.308,3.263-4.506,6.6-6.706,10.128a86.534,86.534,0,0,1-29.347,32.061c-21.167,12.7-19.641,15.658-15.552,23.55l1.155,2.258c3.351,6.706,12.259,24.523,22.685,26.215a14.638,14.638,0,0,0,12.476-5.661c24.186-24.23,42.542-29.093,64.3-29.093a65.017,65.017,0,0,0,46.306-22.708ZM20.7,172.621c-2.364,0-9.556,0-11.809-5.44a8.791,8.791,0,0,1,2.428-9.436A5.5,5.5,0,0,1,20.7,161.63a5.5,5.5,0,0,1,0,10.991ZM88.58,127.316a5.457,5.457,0,0,1-1.649-2.424,21.647,21.647,0,0,1,1.649-16.41A27.638,27.638,0,0,1,107.263,95.84a5.5,5.5,0,1,1,2.666,10.668,17.53,17.53,0,0,0-11.673,7.144,10.384,10.384,0,0,0-1.248,5.562,9.339,9.339,0,0,0,3.66-1,5.5,5.5,0,1,1,4.919,9.833,18.763,18.763,0,0,1-8.385,2.11,13.532,13.532,0,0,1-8.622-2.841Zm0,0" transform="translate(0 -20.886)" fill="#ff9678"/>
      <path id="Path_12" data-name="Path 12" d="M94.439,81.844a20.431,20.431,0,0,0,11.309,11.122,26.169,26.169,0,0,1,2.325-13.816C118.614,56.9,147.6,57.113,159.8,57.718a36.762,36.762,0,0,1,4.589-7.792,35.079,35.079,0,0,0-22.775-10.64h-1.241c-10.811,0-22.016,5.726-33.332,17.035-7.077,7.057-15.015,17.236-12.6,25.524Zm0,0" transform="translate(-38.493 -16.093)" fill="#ff9678"/>
      <path id="Path_13" data-name="Path 13" d="M218.014,238.077a64.434,64.434,0,0,0,2.463-9.584,78.534,78.534,0,0,1-43.758,16.8,47.154,47.154,0,0,1,8.535,27.479,60.368,60.368,0,0,0,32.76-34.695Zm0,0" transform="translate(-72.379 -93.601)" fill="#ff9678"/>
      <path id="Path_14" data-name="Path 14" d="M60.822,32.435c.632-.632,1.271-1.169,1.9-1.776L.145,0,49.363,46.878A71.682,71.682,0,0,1,60.822,32.435Zm0,0" transform="translate(-0.047)" fill="#ff9678"/>
      <path id="Path_15" data-name="Path 15" d="M196.5,278.565a96.146,96.146,0,0,1,26.271-26.379c19.371-14.109,36.106-26.292,38.272-50.226a93.96,93.96,0,0,0-8.355-45.3,96.73,96.73,0,0,0-47.812-48.73,61.721,61.721,0,0,1-7.529,3.413c5.733,13.74,18,49.329,6.893,81a71.263,71.263,0,0,1-39.57,41.574,97.464,97.464,0,0,0-10.958,5.98,78.3,78.3,0,0,0-32.463,38.7c-6.667,17.98-4.255,44.371,13.354,57.864a42.209,42.209,0,0,0,23.384,7.693c-9.632-17.037-24.906-54.919,6.277-86.1a5.5,5.5,0,0,1,7.769,7.771c-30.44,30.44-8.154,68.23-1.317,78.21.719-.051,1.4-.071,2.131-.138a121.416,121.416,0,0,0,18.428-2.956c3.171-.738,6.386-1.5,9.48-2.539a34.378,34.378,0,0,1-9.706-19.581,54.794,54.794,0,0,1,5.452-40.25Zm18.257-59.831c1.061-.666,23.356-15.388,8.639-59.52a5.5,5.5,0,1,1,10.442-3.473c17.681,53.033-12.091,71.631-13.375,72.395a5.5,5.5,0,1,1-5.694-9.4Zm0,0" transform="translate(-48.259 -44.213)" fill="#ff9678"/>
      <path id="Path_16" data-name="Path 16" d="M328.786,299.286a17.993,17.993,0,0,1-10.105-12.513,17.2,17.2,0,0,1,.895-8.2,54.582,54.582,0,0,1,13.943-20.081c1.764-1.852,3.517-3.692,5.126-5.588a174.438,174.438,0,0,0,14.883-19.786,90,90,0,0,0,14.535-55.138c-4.725-61.468-80.7-84.688-92.986-88.046a34.241,34.241,0,0,1-2.841,3.3,109.36,109.36,0,0,1,47.773,51.55,103.856,103.856,0,0,1,9.273,50.791c-2.622,28.89-23.028,43.751-42.757,58.115A86.287,86.287,0,0,0,263.118,277a44.513,44.513,0,0,0-3.962,32.426,21.812,21.812,0,0,0,7.967,14.953,50.677,50.677,0,0,0,28.782,6.337c-.39-.33-.8-.616-1.181-.973-9.965-9.342-12.9-25.731-8.717-48.718a5.5,5.5,0,1,1,10.815,1.967c-3.424,18.811-1.55,32.2,5.412,38.728a25.239,25.239,0,0,0,20.819,4.4,5.415,5.415,0,0,1,3.72.457,68.641,68.641,0,0,0,19.048-7.9,47.652,47.652,0,0,0,18.08-19.751l-.549.309a36.909,36.909,0,0,1-34.568.065Zm0,0" transform="translate(-105.564 -36.841)" fill="#ff9678"/>
    </g>
  </g>
</svg>
